<svg xmlns="http://www.w3.org/2000/svg" viewBox="0 0 32 32">
  <style>
    .bg { fill: #0a0a0a }
    .fg { stroke: #fafafa }
    .dot { fill: #fafafa }
    @media (prefers-color-scheme: dark) {
      .bg { fill: #fafafa }
      .fg { stroke: #0a0a0a }
      .dot { fill: #0a0a0a }
    }
  </style>
  <rect class="bg" width="32" height="32" rx="7" />
  <!-- 24x24 lucide key-round, centered: (32-24)/2 = 4 -->
  <g
    class="fg"
    transform="translate(4 4)"
    fill="none"
    stroke-width="2.25"
    stroke-linecap="round"
    stroke-linejoin="round"
  >
    <path d="M2.586 17.414A2 2 0 0 0 2 18.828V21a1 1 0 0 0 1 1h3a1 1 0 0 0 1-1v-1a1 1 0 0 1 1-1h1a1 1 0 0 0 1-1v-1a1 1 0 0 1 1-1h.172a2 2 0 0 0 1.414-.586l.814-.814a6.5 6.5 0 1 0-4-4z" />
    <circle class="dot" cx="16.5" cy="7.5" r=".5" />
  </g>
</svg>
